:FULLY-SPECIFIED
:FORCE-ALL-JOINTS-BE-3DOF
:DEGREES
951
root 1.32189 15.3724 32.8343 6.71118 -3.93837 5.0524
lfemur 5.03986 -0.509762 2.50783
ltibia 4.66001 -0 0
lfoot -31.4932 -15.0859 -0.0771586
ltoes -31.529 0 0
rfemur -29.3846 -9.353 -9.65726
rtibia 45.3839 -0 0
rfoot -16.9274 -1.24894 -0.187392
rtoes -45.2975 0 0
lowerback -3.76397 -0.744372 -0.268136
upperback -1.56993 -0.962526 -7.3911
thorax 0.325413 -0.500887 -7.62189
lowerneck -6.95059 0.780603 3.57094
upperneck 2.01396 0.580729 3.72997
head 1.80694 0.417772 0.591572
lclavicle 4.04708e-15 -5.917e-14 -1.03807e-30
lhumerus -59.5051 -43.695 112.087
lradius 55.4181 -0 0
lwrist 26.1445 0 0
lhand 41.7709 24.667 -0.0559991
lfingers 7.12502 -0 0
lthumb 63.8731 33.8208 -0.0122758
rclavicle 4.04708e-15 -5.917e-14 -1.03807e-30
rhumerus -1.38672 4.69393 -4.8236
rradius 39.4835 -0 0
rwrist -16.7441 0 0
rhand -16.6297 -37.5156 -0.154829
rfingers 7.12502 -0 0
rthumb 9.59291 -67.3123 -0.144462
952
root 1.31584 15.3685 32.8378 6.72913 -4.01576 5.05045
lfemur 5.10199 -0.580787 2.55396
ltibia 4.56353 -0 0
lfoot -31.5384 -15.0979 -0.0825284
ltoes -31.6182 0 0
rfemur -29.3326 -9.31522 -9.69744
rtibia 45.2432 -0 0
rfoot -17.0375 -1.25595 -0.200658
rtoes -45.3753 0 0
lowerback -3.78819 -0.728975 -0.255743
upperback -1.57596 -0.943108 -7.39821
thorax 0.332039 -0.490436 -7.63769
lowerneck -6.95168 0.793168 3.59237
upperneck 2.00691 0.595946 3.72662
head 1.8044 0.425357 0.587628
lclavicle 4.19086e-15 -5.88224e-14 -1.09968e-30
lhumerus -59.5422 -43.7042 112.135
lradius 55.4039 -0 0
lwrist 26.1719 0 0
lhand 41.7846 24.7015 -0.0599015
lfingers 7.12502 -0 0
lthumb 63.886 33.8493 -0.0133858
rclavicle 4.19086e-15 -5.88224e-14 -1.09968e-30
rhumerus -1.22836 4.54725 -4.63631
rradius 39.2997 -0 0
rwrist -16.6916 0 0
rhand -16.636 -37.483 -0.164624
rfingers 7.12502 -0 0
rthumb 9.58685 -67.2817 -0.153549
953
root 1.30996 15.3647 32.8412 6.74608 -4.09068 5.04801
lfemur 5.16283 -0.649314 2.59931
ltibia 4.46974 -0 0
lfoot -31.5825 -15.1083 -0.0877316
ltoes -31.7055 0 0
rfemur -29.2824 -9.28011 -9.73548
rtibia 45.1079 -0 0
rfoot -17.1456 -1.26099 -0.213549
rtoes -45.4496 0 0
lowerback -3.8112 -0.713846 -0.243821
upperback -1.58152 -0.924009 -7.40469
thorax 0.338551 -0.48016 -7.6525
lowerneck -6.95291 0.805307 3.6139
upperneck 2.00013 0.610559 3.72342
head 1.802 0.432652 0.583687
lclavicle 4.32937e-15 -5.8459e-14 -1.15751e-30
lhumerus -59.5778 -43.714 112.182
lradius 55.3902 -0 0
lwrist 26.1983 0 0
lhand 41.7969 24.7352 -0.0636837
lfingers 7.12502 -0 0
lthumb 63.8976 33.8783 -0.014505
rclavicle 4.32937e-15 -5.8459e-14 -1.15751e-30
rhumerus -1.07405 4.39691 -4.45346
rradius 39.1183 -0 0
rwrist -16.6386 0 0
rhand -16.646 -37.4524 -0.173948
rfingers 7.12502 -0 0
rthumb 9.57722 -67.253 -0.16219
954
root 1.30425 15.361 32.8444 6.76203 -4.16313 5.0451
lfemur 5.2224 -0.71537 2.64389
ltibia 4.37859 -0 0
lfoot -31.6255 -15.1169 -0.092768
ltoes -31.7909 0 0
rfemur -29.2341 -9.24764 -9.7714
rtibia 44.9779 -0 0
rfoot -17.2517 -1.2641 -0.226066
rtoes -45.5205 0 0
lowerback -3.83302 -0.698984 -0.232365
upperback -1.58661 -0.905228 -7.41056
thorax 0.344952 -0.470058 -7.66633
lowerneck -6.95428 0.817023 3.63554
upperneck 1.9936 0.624574 3.72037
head 1.79971 0.43966 0.57975
lclavicle 4.46268e-15 -5.80801e-14 -1.21158e-30
lhumerus -59.6119 -43.7242 112.228
lradius 55.3771 -0 0
lwrist 26.2238 0 0
lhand 41.8075 24.7681 -0.0673457
lfingers 7.12502 -0 0
lthumb 63.9078 33.9078 -0.0156324
rclavicle 4.46268e-15 -5.80801e-14 -1.21158e-30
rhumerus -0.923767 4.24302 -4.275
rradius 38.939 -0 0
rwrist -16.5849 0 0
rhand -16.6597 -37.4238 -0.182804
rfingers 7.12502 -0 0
rthumb 9.56404 -67.2263 -0.170387
955
root 1.2987 15.3573 32.8475 6.77701 -4.23323 5.04172
lfemur 5.28073 -0.778983 2.68772
ltibia 4.29007 -0 0
lfoot -31.6674 -15.1239 -0.0976375
ltoes -31.8743 0 0
rfemur -29.1875 -9.21776 -9.80524
rtibia 44.8532 -0 0
rfoot -17.3559 -1.26531 -0.238207
rtoes -45.5878 0 0
lowerback -3.85368 -0.684386 -0.221369
upperback -1.59124 -0.886759 -7.41582
thorax 0.351241 -0.460128 -7.67919
lowerneck -6.95578 0.828322 3.65728
upperneck 1.98733 0.637999 3.71748
head 1.79755 0.446386 0.575815
lclavicle 4.59085e-15 -5.76858e-14 -1.26192e-30
lhumerus -59.6446 -43.735 112.274
lradius 55.3644 -0 0
lwrist 26.2482 0 0
lhand 41.8167 24.8001 -0.0708873
lfingers 7.12502 -0 0
lthumb 63.9167 33.9377 -0.0167671
rclavicle 4.59085e-15 -5.76858e-14 -1.26192e-30
rhumerus -0.777455 4.08565 -4.10089
rradius 38.762 -0 0
rwrist -16.5308 0 0
rhand -16.677 -37.3971 -0.191196
rfingers 7.12502 -0 0
rthumb 9.54739 -67.2015 -0.178144
956
root 1.29332 15.3537 32.8504 6.79103 -4.30094 5.03787
lfemur 5.33781 -0.84018 2.7308
ltibia 4.20413 -0 0
lfoot -31.7082 -15.1293 -0.10234
ltoes -31.9559 0 0
rfemur -29.1427 -9.19047 -9.83704
rtibia 44.7337 -0 0
rfoot -17.4581 -1.26465 -0.249971
rtoes -45.6518 0 0
lowerback -3.87317 -0.670051 -0.210826
upperback -1.59541 -0.8686 -7.42047
thorax 0.357421 -0.45037 -7.69111
lowerneck -6.95742 0.839209 3.67912
upperneck 1.98131 0.650841 3.71473
head 1.79552 0.452833 0.571884
lclavicle 4.71394e-15 -5.72764e-14 -1.30858e-30
lhumerus -59.6759 -43.7462 112.319
lradius 55.3522 -0 0
lwrist 26.2717 0 0
lhand 41.8243 24.8314 -0.0743087
lfingers 7.12502 -0 0
lthumb 63.9243 33.9681 -0.017908
rclavicle 4.71394e-15 -5.72764e-14 -1.30858e-30
rhumerus -0.635078 3.92489 -3.93109
rradius 38.5872 -0 0
rwrist -16.476 0 0
rhand -16.6978 -37.3724 -0.199128
rfingers 7.12502 -0 0
rthumb 9.5273 -67.1786 -0.185465
957
root 1.2881 15.3501 32.8532 6.8041 -4.36631 5.03357
lfemur 5.39368 -0.89899 2.77316
ltibia 4.12075 -0 0
lfoot -31.7479 -15.133 -0.106876
ltoes -32.0356 0 0
rfemur -29.0997 -9.16571 -9.86681
rtibia 44.6193 -0 0
rfoot -17.5584 -1.26213 -0.261357
rtoes -45.7123 0 0
lowerback -3.89152 -0.655976 -0.200731
upperback -1.59913 -0.850748 -7.42454
thorax 0.363493 -0.440781 -7.70208
lowerneck -6.9592 0.84969 3.70106
upperneck 1.97555 0.663107 3.71213
head 1.7936 0.459004 0.567957
lclavicle 4.83202e-15 -5.68522e-14 -1.35159e-30
lhumerus -59.7058 -43.758 112.364
lradius 55.3405 -0 0
lwrist 26.2943 0 0
lhand 41.8305 24.8618 -0.0776098
lfingers 7.12502 -0 0
lthumb 63.9306 33.999 -0.019054
rclavicle 4.83202e-15 -5.68522e-14 -1.35159e-30
rhumerus -0.496594 3.76083 -3.76553
rradius 38.4146 -0 0
rwrist -16.4208 0 0
rhand -16.7221 -37.3496 -0.206604
rfingers 7.12502 -0 0
rthumb 9.50382 -67.1576 -0.192355
958
root 1.28304 15.3466 32.8559 6.81622 -4.42936 5.02884
lfemur 5.44835 -0.955439 2.8148
ltibia 4.03989 -0 0
lfoot -31.7865 -15.1352 -0.111246
ltoes -32.1135 0 0
rfemur -29.0583 -9.14347 -9.8946
rtibia 44.5101 -0 0
rfoot -17.6569 -1.2578 -0.272366
rtoes -45.7696 0 0
lowerback -3.90875 -0.642159 -0.191078
upperback -1.60241 -0.833199 -7.42801
thorax 0.369459 -0.431359 -7.71212
lowerneck -6.9611 0.859769 3.72309
upperneck 1.97002 0.674805 3.70968
head 1.79181 0.464902 0.564034
lclavicle 4.94515e-15 -5.64134e-14 -1.391e-30
lhumerus -59.7343 -43.7702 112.409
lradius 55.3292 -0 0
lwrist 26.3159 0 0
lhand 41.8352 24.8913 -0.080791
lfingers 7.12502 -0 0
lthumb 63.9357 34.0303 -0.0202042
rclavicle 4.94515e-15 -5.64134e-14 -1.391e-30
rhumerus -0.361959 3.59355 -3.60419
rradius 38.2442 -0 0
rwrist -16.365 0 0
rhand -16.7499 -37.3286 -0.21363
rfingers 7.12502 -0 0
rthumb 9.47701 -67.1385 -0.198818
959
root 1.27813 15.3431 32.8584 6.82743 -4.49012 5.02366
lfemur 5.50183 -1.00956 2.85573
ltibia 3.96153 -0 0
lfoot -31.8241 -15.1359 -0.11545
ltoes -32.1895 0 0
rfemur -29.0187 -9.12372 -9.92043
rtibia 44.4059 -0 0
rfoot -17.7535 -1.25167 -0.282998
rtoes -45.8235 0 0
lowerback -3.92486 -0.628597 -0.18186
upperback -1.60525 -0.815951 -7.43091
thorax 0.375319 -0.422104 -7.72125
lowerneck -6.96313 0.869451 3.74521
upperneck 1.96474 0.685942 3.70738
head 1.79013 0.470531 0.560116
lclavicle 5.05339e-15 -5.59601e-14 -1.42686e-30
lhumerus -59.7614 -43.7829 112.453
lradius 55.3184 -0 0
lwrist 26.3366 0 0
lhand 41.8385 24.9201 -0.0838526
lfingers 7.12502 -0 0
lthumb 63.9395 34.062 -0.0213575
rclavicle 5.05339e-15 -5.59601e-14 -1.42686e-30
rhumerus -0.231128 3.42314 -3.447
rradius 38.0759 -0 0
rwrist -16.3088 0 0
rhand -16.7811 -37.3095 -0.22021
rfingers 7.12502 -0 0
rthumb 9.44691 -67.1212 -0.20486
